<?xml version="1.0" standalone="no"?>
<!DOCTYPE svg PUBLIC "-//W3C//DTD SVG 20010904//EN"
 "http://www.w3.org/TR/2001/REC-SVG-20010904/DTD/svg10.dtd">
<svg version="1.0" xmlns="http://www.w3.org/2000/svg"
 width="512.000000pt" height="512.000000pt" viewBox="0 0 512.000000 512.000000"
 preserveAspectRatio="xMidYMid meet">
<metadata>
Created by potrace 1.14, written by Peter Selinger 2001-2017
</metadata>
<g transform="translate(0.000000,512.000000) scale(0.100000,-0.100000)"
fill="#000000" stroke="none">
<path d="M489 5101 c-194 -52 -337 -169 -423 -345 -70 -143 -66 0 -65 -2201 1
-1603 3 -2002 14 -2050 40 -184 171 -351 340 -435 148 -73 -11 -69 2230 -67
l2020 2 73 27 c105 38 176 83 252 158 75 76 120 147 158 252 l27 73 2 2025 c2
1907 1 2029 -16 2090 -43 158 -121 274 -251 371 -57 42 -112 68 -235 107 -11
4 -929 8 -2040 8 -1899 2 -2024 1 -2086 -15z"/>
</g>
</svg>
